G75*
%MOIN*%
%OFA0B0*%
%FSLAX25Y25*%
%IPPOS*%
%LPD*%
%AMOC8*
5,1,8,0,0,1.08239X$1,22.5*
%
%ADD10C,0.08200*%
%ADD11C,0.07200*%
%ADD12C,0.08200*%
%ADD13C,0.06000*%
%ADD14C,0.09800*%
%ADD15C,0.04800*%
D10*
X0011500Y0026033D03*
X0021500Y0026033D03*
X0021500Y0066033D03*
X0011500Y0066033D03*
X0011500Y0106033D03*
X0021500Y0106033D03*
X0092600Y0103833D03*
X0110400Y0103833D03*
X0126500Y0106033D03*
X0142600Y0103833D03*
X0160400Y0103833D03*
X0176500Y0106033D03*
X0176500Y0126033D03*
X0160400Y0128233D03*
X0142600Y0128233D03*
X0126500Y0126033D03*
X0110400Y0128233D03*
X0092600Y0128233D03*
X0092600Y0153833D03*
X0110400Y0153833D03*
X0126500Y0156033D03*
X0142600Y0153833D03*
X0160400Y0153833D03*
X0176500Y0156033D03*
X0076500Y0165533D03*
X0066500Y0166533D03*
X0056500Y0165533D03*
X0046500Y0166533D03*
X0092600Y0078233D03*
X0110400Y0078233D03*
X0126500Y0076033D03*
X0142600Y0078233D03*
X0160400Y0078233D03*
X0176500Y0076033D03*
X0156500Y0061033D03*
X0126500Y0061033D03*
X0110500Y0061033D03*
X0092500Y0061033D03*
X0092500Y0031033D03*
X0110500Y0031033D03*
D11*
X0076500Y0031033D03*
X0076500Y0041033D03*
X0076500Y0051033D03*
X0076500Y0061033D03*
X0076500Y0071033D03*
X0076500Y0081033D03*
X0076500Y0091033D03*
X0046500Y0091033D03*
X0046500Y0081033D03*
X0046500Y0071033D03*
X0046500Y0061033D03*
X0046500Y0051033D03*
X0046500Y0041033D03*
X0046500Y0031033D03*
D12*
X0026500Y0160333D02*
X0026500Y0167733D01*
X0016500Y0167733D02*
X0016500Y0160333D01*
D13*
X0138900Y0046033D02*
X0144100Y0046033D01*
X0144100Y0036033D02*
X0138900Y0036033D01*
X0138900Y0026033D02*
X0144100Y0026033D01*
X0144100Y0016033D02*
X0138900Y0016033D01*
X0168900Y0016033D02*
X0174100Y0016033D01*
X0174100Y0026033D02*
X0168900Y0026033D01*
X0168900Y0036033D02*
X0174100Y0036033D01*
X0174100Y0046033D02*
X0168900Y0046033D01*
D14*
X0220500Y0045033D03*
X0232500Y0045033D03*
X0232500Y0127033D03*
X0220500Y0127033D03*
D15*
X0216500Y0156033D03*
X0226500Y0156033D03*
X0236500Y0156033D03*
X0246500Y0156033D03*
X0206500Y0156033D03*
X0196500Y0156033D03*
M02*
