%
M48
M72
T01C0.03200
T02C0.03543
T03C0.04000
T04C0.04400
T05C0.04600
%
T01
X11500Y26033
X21500Y26033
X46500Y31033
X46500Y41033
X46500Y51033
X46500Y61033
X46500Y71033
X46500Y81033
X46500Y91033
X21500Y106033
X11500Y106033
X11500Y66033
X21500Y66033
X76500Y61033
X76500Y51033
X76500Y41033
X76500Y31033
X76500Y71033
X76500Y81033
X76500Y91033
X141500Y46033
X141500Y36033
X141500Y26033
X141500Y16033
X171500Y16033
X171500Y26033
X171500Y36033
X171500Y46033
T02
X156500Y61033
X176500Y76033
X176500Y106033
X176500Y126033
X176500Y156033
X126500Y156033
X126500Y126033
X126500Y106033
X126500Y76033
X126500Y61033
X110500Y61033
X92500Y61033
X92500Y31033
X110500Y31033
T03
X110400Y78233
X92600Y78233
X92600Y103833
X110400Y103833
X142600Y103833
X160400Y103833
X160400Y128233
X142600Y128233
X110400Y128233
X92600Y128233
X92600Y153833
X110400Y153833
X142600Y153833
X160400Y153833
X76500Y165533
X66500Y166533
X56500Y165533
X46500Y166533
X142600Y78233
X160400Y78233
T04
X26500Y164033
X16500Y164033
T05
X220500Y127033
X232500Y127033
X232500Y45033
X220500Y45033
M30
