G75*
%MOIN*%
%OFA0B0*%
%FSLAX25Y25*%
%IPPOS*%
%LPD*%
%AMOC8*
5,1,8,0,0,1.08239X$1,22.5*
%
%ADD10R,0.05131X0.04737*%
%ADD11C,0.08200*%
%ADD12C,0.07200*%
%ADD13R,0.03950X0.05524*%
%ADD14C,0.08200*%
%ADD15R,0.05524X0.03950*%
%ADD16R,0.03300X0.05800*%
%ADD17C,0.06000*%
%ADD18C,0.70800*%
%ADD19C,0.09800*%
D10*
X0040154Y0103533D03*
X0046846Y0103533D03*
D11*
X0011500Y0026033D03*
X0021500Y0026033D03*
X0021500Y0066033D03*
X0011500Y0066033D03*
X0011500Y0106033D03*
X0021500Y0106033D03*
X0092600Y0103833D03*
X0110400Y0103833D03*
X0126500Y0106033D03*
X0142600Y0103833D03*
X0160400Y0103833D03*
X0176500Y0106033D03*
X0176500Y0126033D03*
X0160400Y0128233D03*
X0142600Y0128233D03*
X0126500Y0126033D03*
X0110400Y0128233D03*
X0092600Y0128233D03*
X0092600Y0153833D03*
X0110400Y0153833D03*
X0126500Y0156033D03*
X0142600Y0153833D03*
X0160400Y0153833D03*
X0176500Y0156033D03*
X0076500Y0165533D03*
X0066500Y0166533D03*
X0056500Y0165533D03*
X0046500Y0166533D03*
X0092600Y0078233D03*
X0110400Y0078233D03*
X0126500Y0076033D03*
X0142600Y0078233D03*
X0160400Y0078233D03*
X0176500Y0076033D03*
X0156500Y0061033D03*
X0126500Y0061033D03*
X0110500Y0061033D03*
X0092500Y0061033D03*
X0092500Y0031033D03*
X0110500Y0031033D03*
D12*
X0076500Y0031033D03*
X0076500Y0041033D03*
X0076500Y0051033D03*
X0076500Y0061033D03*
X0076500Y0071033D03*
X0076500Y0081033D03*
X0076500Y0091033D03*
X0046500Y0091033D03*
X0046500Y0081033D03*
X0046500Y0071033D03*
X0046500Y0061033D03*
X0046500Y0051033D03*
X0046500Y0041033D03*
X0046500Y0031033D03*
D13*
X0019043Y0045033D03*
X0011957Y0045033D03*
X0011957Y0085033D03*
X0019043Y0085033D03*
X0019043Y0125033D03*
X0011957Y0125033D03*
D14*
X0016500Y0160333D02*
X0016500Y0167733D01*
X0026500Y0167733D02*
X0026500Y0160333D01*
D15*
X0066500Y0124577D03*
X0066500Y0117490D03*
D16*
X0169900Y0061033D03*
X0173100Y0061033D03*
D17*
X0174100Y0046033D02*
X0168900Y0046033D01*
X0168900Y0036033D02*
X0174100Y0036033D01*
X0174100Y0026033D02*
X0168900Y0026033D01*
X0168900Y0016033D02*
X0174100Y0016033D01*
X0144100Y0016033D02*
X0138900Y0016033D01*
X0138900Y0026033D02*
X0144100Y0026033D01*
X0144100Y0036033D02*
X0138900Y0036033D01*
X0138900Y0046033D02*
X0144100Y0046033D01*
D18*
X0226500Y0086033D03*
D19*
X0220500Y0045033D03*
X0232500Y0045033D03*
X0232500Y0127033D03*
X0220500Y0127033D03*
M02*
